{"title":"Paul.[2011].DvdRip.XviD-KnÃƒÂ£","uid":6490746,"size":939513856,"categoryP":"video","categoryS":"movies","magnet":"?xt=urn:btih:cd1276a5cb1e5218d2978d9fafe15758920e1438&amp;dn=Paul.%5B2011%5D.DvdRip.XviD-Kn%C3%83%C2%A3&amp;tr=udp%3A%2F%2Ftracker.openbittorrent.com%3A80&amp;tr=udp%3A%2F%2Fopen.demonii.com%3A1337&amp;tr=udp%3A%2F%2Ftracker.coppersurfer.tk%3A6969&amp;tr=udp%3A%2F%2Fexodus.desync.com%3A6969","seeders":0,"leechers":1,"uploader":"Jon.Pson","files":1,"time":1308874668,"description":"Two British comic-book geeks traveling across the U.S. encounter an alien outside Area 51. \n\n\nGeneral\nComplete name                    : H:\\Movies\\Paul.[2011].DvdRip.XviD-KnÃƒÂ£\\Paul.[2011].DvdRip.XviD-KnÃƒÂ£.avi\nFormat                           : AVI\nFormat/Info                      : Audio Video Interleave\nFile size                        : 896 MiB\nDuration                         : 1h 39mn\nOverall bit rate                 : 1 260 Kbps\nWriting application              : VirtualDubMod 1.5.4.1 (build 2178/release)\nWriting library                  : VirtualDubMod build 2178/release\n\nVideo\nID                               : 0\nFormat                           : MPEG-4 Visual\nFormat profile                   : Advanced Simple@L5\nFormat settings, BVOP            : Yes\nFormat settings, QPel            : No\nFormat settings, GMC             : No warppoints\nFormat settings, Matrix          : Default (H.263)\nMuxing mode                      : Packed bitstream\nCodec ID                         : XVID\nCodec ID/Hint                    : XviD\nDuration                         : 1h 39mn\nBit rate                         : 868 Kbps\nWidth                            : 704 pixels\nHeight                           : 304 pixels\nDisplay aspect ratio             : 2.35:1\nFrame rate                       : 25.000 fps\nColor space                      : YUV\nChroma subsampling               : 4:2:0\nBit depth                        : 8 bits\nScan type                        : Progressive\nBits/(Pixel*Frame)               : 0.162\nStream size                      : 618 MiB (69%)\nWriting library                  : XviD 1.2.1 (UTC 2008-12-04)\n\nAudio\nID                               : 1\nFormat                           : AC-3\nFormat/Info                      : Audio Coding 3\nMode extension                   : CM (complete main)\nCodec ID                         : 2000\nDuration                         : 1h 39mn\nBit rate mode                    : Constant\nBit rate                         : 384 Kbps\nChannel(s)                       : 6 channels\nChannel positions                : Front: L C R, Side: L R, LFE\nSampling rate                    : 48.0 KHz\nBit depth                        : 16 bits\nStream size                      : 273 MiB (30%)\nAlignment                        : Split accross interleaves\nInterleave, duration             : 80 ms (2.00 video frames)\nInterleave, preload duration     : 500 ms\nLanguage                         : English\n\n","torrent":{"xt":"urn:btih:cd1276a5cb1e5218d2978d9fafe15758920e1438","amp;dn":"Paul.%5B2011%5D.DvdRip.XviD-Kn%C3%83%C2%A3","amp;tr":["udp%3A%2F%2Ftracker.openbittorrent.com%3A80","udp%3A%2F%2Fopen.demonii.com%3A1337","udp%3A%2F%2Ftracker.coppersurfer.tk%3A6969","udp%3A%2F%2Fexodus.desync.com%3A6969"],"infoHash":"cd1276a5cb1e5218d2978d9fafe15758920e1438","infoHashBuffer":{"type":"Buffer","data":[205,18,118,165,203,30,82,24,210,151,141,159,175,225,87,88,146,14,20,56]},"announce":[],"urlList":[]}}